<svg width="24" height="25" viewBox="0 0 24 25" fill="none" xmlns="http://www.w3.org/2000/svg">
<path fill-rule="evenodd" clip-rule="evenodd" d="M7.5 4.25C6.67157 4.25 6 4.92157 6 5.75L6 19.25C6 20.0784 6.67157 20.75 7.5 20.75H13.5C14.3284 20.75 15 20.0784 15 19.25V15.5C15 15.0858 15.3358 14.75 15.75 14.75C16.1642 14.75 16.5 15.0858 16.5 15.5V19.25C16.5 20.9069 15.1569 22.25 13.5 22.25H7.5C5.84315 22.25 4.5 20.9069 4.5 19.25L4.5 5.75C4.5 4.09315 5.84315 2.75 7.5 2.75L13.5 2.75C15.1569 2.75 16.5 4.09315 16.5 5.75V9.5C16.5 9.91421 16.1642 10.25 15.75 10.25C15.3358 10.25 15 9.91421 15 9.5V5.75C15 4.92157 14.3284 4.25 13.5 4.25L7.5 4.25ZM18.2197 8.96967C18.5126 8.67678 18.9874 8.67678 19.2803 8.96967L22.2803 11.9697C22.5732 12.2626 22.5732 12.7374 22.2803 13.0303L19.2803 16.0303C18.9874 16.3232 18.5126 16.3232 18.2197 16.0303C17.9268 15.7374 17.9268 15.2626 18.2197 14.9697L19.9393 13.25L9 13.25C8.58579 13.25 8.25 12.9142 8.25 12.5C8.25 12.0858 8.58579 11.75 9 11.75L19.9393 11.75L18.2197 10.0303C17.9268 9.73744 17.9268 9.26256 18.2197 8.96967Z" fill="#F6F6F6"/>
</svg>
