<svg width="64" height="64" viewBox="0 0 64 64" fill="none" xmlns="http://www.w3.org/2000/svg">
<g clip-path="url(#clip0_111_97)">
<path d="M32 47.9929C40.8366 47.9929 48 40.8295 48 31.9929C48 23.1564 40.8366 15.9929 32 15.9929C23.1634 15.9929 16 23.1564 16 31.9929C16 40.8295 23.1634 47.9929 32 47.9929Z" fill="white"/>
<path d="M32 16.0001H59.7083C56.9005 11.1352 52.8614 7.09539 47.9971 4.28673C43.1329 1.47807 37.6148 -0.000391827 31.9979 7.78931e-08C26.381 0.000391983 20.8631 1.47963 15.9992 4.28896C11.1353 7.0983 7.0968 11.1387 4.28973 16.0039L18.1439 40.0001L18.1563 39.9969C16.7469 37.5666 16.0032 34.8076 16 31.9983C15.9969 29.1889 16.7344 26.4283 18.1383 23.9949C19.5421 21.5614 21.5627 19.541 23.9964 18.1374C26.43 16.7338 29.1906 15.9966 32 16.0001Z" fill="url(#paint0_linear_111_97)"/>
<path d="M32 44.6667C38.9956 44.6667 44.6667 38.9956 44.6667 32C44.6667 25.0044 38.9956 19.3334 32 19.3334C25.0044 19.3334 19.3333 25.0044 19.3333 32C19.3333 38.9956 25.0044 44.6667 32 44.6667Z" fill="#1A73E8"/>
<path d="M45.855 40.0039L32.0009 64C37.6178 64.0008 43.1359 62.5227 48.0004 59.7144C52.8649 56.9061 56.9043 52.8666 59.7124 48.002C62.5205 43.1374 63.9983 37.6192 63.9973 32.0023C63.9963 26.3854 62.5165 20.8677 59.7066 16.0042H31.9985L31.9952 16.0165C34.8046 16.0111 37.5657 16.7465 40.0003 18.1484C42.4349 19.5503 44.4569 21.5693 45.8624 24.0019C47.2679 26.4344 48.0073 29.1945 48.006 32.0039C48.0047 34.8132 47.2628 37.5726 45.855 40.0039Z" fill="url(#paint1_linear_111_97)"/>
<path d="M18.1448 40.0042L4.29065 16.0081C1.48149 20.8721 0.00243713 26.3899 0.00222781 32.0069C0.00201848 37.6238 1.48066 43.1418 4.28946 48.006C7.09827 52.8702 11.1382 56.9092 16.0031 59.7168C20.868 62.5244 26.3864 64.0017 32.0033 64.0001L45.8575 40.0039L45.8485 39.9949C44.4485 42.4305 42.4311 44.4541 39.9996 45.8615C37.5682 47.2689 34.8087 48.0105 31.9994 48.0114C29.19 48.0124 26.43 47.2727 23.9976 45.8669C21.5652 44.4611 19.5465 42.4389 18.1448 40.0042Z" fill="url(#paint2_linear_111_97)"/>
</g>
<defs>
<linearGradient id="paint0_linear_111_97" x1="4.28973" y1="20.0001" x2="59.7083" y2="20.0001" gradientUnits="userSpaceOnUse">
<stop stop-color="#D93025"/>
<stop offset="1" stop-color="#EA4335"/>
</linearGradient>
<linearGradient id="paint1_linear_111_97" x1="27.6292" y1="63.5721" x2="55.3385" y2="15.5783" gradientUnits="userSpaceOnUse">
<stop stop-color="#FCC934"/>
<stop offset="1" stop-color="#FBBC04"/>
</linearGradient>
<linearGradient id="paint2_linear_111_97" x1="35.4641" y1="62.0021" x2="7.75478" y2="14.0081" gradientUnits="userSpaceOnUse">
<stop stop-color="#1E8E3E"/>
<stop offset="1" stop-color="#34A853"/>
</linearGradient>
<clipPath id="clip0_111_97">
<rect width="64" height="64" fill="white"/>
</clipPath>
</defs>
</svg>
