<svg width="64" height="64" viewBox="0 0 64 64" fill="none" xmlns="http://www.w3.org/2000/svg">
<g clip-path="url(#clip0_111_65)">
<path d="M61.1507 21.6614C59.7837 18.477 57.0107 15.0388 54.8392 13.9519C56.3877 16.8549 57.4625 19.9725 58.0254 23.1939L58.0311 23.2449C54.4739 14.6631 48.4441 11.1974 43.5167 3.66076C43.2675 3.27961 43.0183 2.89767 42.7755 2.49451C42.6367 2.26425 42.5255 2.05678 42.4289 1.86581C42.2246 1.48273 42.0671 1.07788 41.9597 0.659477C41.9599 0.640169 41.9527 0.621486 41.9395 0.606992C41.9263 0.592497 41.9081 0.583205 41.8883 0.580889C41.8689 0.575739 41.8484 0.575739 41.829 0.580889C41.825 0.580889 41.8185 0.587962 41.8136 0.589533C41.8087 0.591105 41.7982 0.598178 41.7909 0.601322L41.803 0.580889C33.9005 5.06042 31.2176 13.3515 30.9741 17.5009C27.8171 17.7105 24.7986 18.8364 22.3125 20.7317C22.0532 20.5191 21.7823 20.3202 21.5008 20.136C20.784 17.7068 20.7534 15.1359 21.4123 12.6913C18.5101 14.0523 15.9314 15.9818 13.8393 18.3575H13.8247C12.5778 16.8274 12.6655 11.7821 12.7369 10.7282C12.368 10.8717 12.0159 11.0527 11.6865 11.2681C10.5858 12.0286 9.55675 12.882 8.61152 13.8183C7.53437 14.8755 6.55059 16.0183 5.67049 17.2345V17.2392V17.2337C3.64799 20.0092 2.21333 23.1449 1.4493 26.46L1.40709 26.6612C1.34783 26.9292 1.13433 28.2714 1.0978 28.563C1.0978 28.5858 1.09293 28.607 1.0905 28.6298C0.815103 30.0156 0.64445 31.419 0.579895 32.8288V32.986C0.593799 40.6079 3.55874 47.9478 8.88943 53.5568C14.2201 59.1658 21.5292 62.6362 29.3737 63.2831C37.2183 63.9299 45.0283 61.7061 51.262 57.0507C57.4958 52.3952 61.7002 45.6465 63.0454 38.1366C63.0981 37.7437 63.1412 37.3547 63.1882 36.9578C63.8363 31.7725 63.1347 26.5126 61.1475 21.6567L61.1507 21.6614ZM24.8891 45.5051C25.036 45.5734 25.174 45.6473 25.325 45.7125L25.3469 45.7259C25.1943 45.6552 25.0417 45.5815 24.8891 45.5051ZM58.0319 23.2536V23.2245L58.0376 23.2567L58.0319 23.2536Z" fill="url(#paint0_linear_111_65)"/>
<path d="M61.1506 21.6614C59.7836 18.477 57.0106 15.0388 54.8391 13.9519C56.3876 16.8549 57.4624 19.9725 58.0253 23.1939V23.223L58.031 23.2552C60.4564 29.9737 60.1056 37.3398 57.052 43.8139C53.4461 51.3041 44.7213 58.9814 31.0592 58.6042C16.3013 58.1994 3.29679 47.5939 0.86961 33.7074C0.427197 31.5172 0.86961 30.4067 1.09203 28.6267C0.788637 30.0093 0.619325 31.4164 0.586304 32.8296V32.9868C0.600208 40.6087 3.56515 47.9486 8.89584 53.5576C14.2265 59.1666 21.5356 62.637 29.3801 63.2839C37.2247 63.9307 45.0347 61.7069 51.2685 57.0515C57.5022 52.396 61.7066 45.6473 63.0518 38.1374C63.1045 37.7445 63.1476 37.3555 63.1946 36.9586C63.8427 31.7733 63.1411 26.5134 61.1539 21.6575L61.1506 21.6614Z" fill="url(#paint1_radial_111_65)"/>
<path d="M61.1506 21.6614C59.7836 18.477 57.0106 15.0388 54.8391 13.9519C56.3876 16.8549 57.4624 19.9725 58.0253 23.1939V23.223L58.031 23.2552C60.4564 29.9737 60.1056 37.3398 57.052 43.8139C53.4461 51.3041 44.7213 58.9814 31.0592 58.6042C16.3013 58.1994 3.29679 47.5939 0.86961 33.7074C0.427197 31.5172 0.86961 30.4067 1.09203 28.6267C0.788637 30.0093 0.619325 31.4164 0.586304 32.8296V32.9868C0.600208 40.6087 3.56515 47.9486 8.89584 53.5576C14.2265 59.1666 21.5356 62.637 29.3801 63.2839C37.2247 63.9307 45.0347 61.7069 51.2685 57.0515C57.5022 52.396 61.7066 45.6473 63.0518 38.1374C63.1045 37.7445 63.1476 37.3555 63.1946 36.9586C63.8427 31.7733 63.1411 26.5134 61.1539 21.6575L61.1506 21.6614Z" fill="url(#paint2_radial_111_65)"/>
<path d="M45.857 25.2372C45.9251 25.2835 45.9885 25.3299 46.0526 25.3763C45.2623 24.0196 44.2785 22.7775 43.1302 21.6865C33.3484 12.2167 40.5675 1.1593 41.7843 0.593461L41.7965 0.576172C33.8939 5.0557 31.2111 13.3468 30.9675 17.4962C31.3344 17.4719 31.6981 17.442 32.0732 17.442C34.8769 17.4472 37.6292 18.1711 40.0502 19.54C42.4713 20.9089 44.4747 22.874 45.857 25.2356V25.2372Z" fill="url(#paint3_radial_111_65)"/>
<path d="M32.0894 27.1311C32.0374 27.8887 29.2725 30.5018 28.3057 30.5018C19.36 30.5018 17.907 35.7413 17.907 35.7413C18.3031 40.1532 21.4788 43.7887 25.3176 45.7063C25.4929 45.7943 25.6707 45.8736 25.8485 45.9514C26.1564 46.0835 26.4644 46.2055 26.7723 46.3177C28.0898 46.769 29.4697 47.0268 30.866 47.0823C46.5494 47.7943 49.5854 28.9285 38.2685 23.4509C40.9381 23.1146 43.6415 23.75 45.8545 25.234C44.4723 22.8725 42.4688 20.9074 40.0478 19.5385C37.6267 18.1696 34.8744 17.4457 32.0707 17.4404C31.6973 17.4404 31.332 17.4703 30.9651 17.4947C27.8081 17.7042 24.7896 18.8301 22.3035 20.7254C22.7833 21.1184 23.3247 21.6433 24.4652 22.7318C26.6002 24.768 32.0756 26.8773 32.0877 27.1249L32.0894 27.1311Z" fill="url(#paint4_radial_111_65)"/>
<path d="M32.0894 27.1311C32.0374 27.8887 29.2725 30.5018 28.3057 30.5018C19.36 30.5018 17.907 35.7413 17.907 35.7413C18.3031 40.1532 21.4788 43.7887 25.3176 45.7063C25.4929 45.7943 25.6707 45.8736 25.8485 45.9514C26.1564 46.0835 26.4644 46.2055 26.7723 46.3177C28.0898 46.769 29.4697 47.0268 30.866 47.0823C46.5494 47.7943 49.5854 28.9285 38.2685 23.4509C40.9381 23.1146 43.6415 23.75 45.8545 25.234C44.4723 22.8725 42.4688 20.9074 40.0478 19.5385C37.6267 18.1696 34.8744 17.4457 32.0707 17.4404C31.6973 17.4404 31.332 17.4703 30.9651 17.4947C27.8081 17.7042 24.7896 18.8301 22.3035 20.7254C22.7833 21.1184 23.3247 21.6433 24.4652 22.7318C26.6002 24.768 32.0756 26.8773 32.0877 27.1249L32.0894 27.1311Z" fill="url(#paint5_radial_111_65)"/>
<path d="M20.8383 19.7204C21.0932 19.8775 21.3034 20.0143 21.4877 20.1377C20.7709 17.7084 20.7403 15.1375 21.3992 12.693C18.497 14.054 15.9183 15.9834 13.8262 18.3592C13.9797 18.3553 18.5434 18.2759 20.8383 19.7204Z" fill="url(#paint6_radial_111_65)"/>
<path d="M0.863936 33.709C3.29193 47.5955 16.2956 58.2049 31.0536 58.6057C44.7156 58.9798 53.4421 51.3017 57.0463 43.8154C60.1 37.3414 60.4507 29.9753 58.0253 23.2567V23.2277C58.0253 23.2049 58.0204 23.1915 58.0253 23.1986L58.031 23.2497C59.1472 30.3045 55.4407 37.1362 49.6455 41.765L49.6276 41.8043C38.3359 50.7084 27.5313 47.1751 25.3476 45.7337C25.195 45.663 25.0424 45.5894 24.8898 45.5129C18.3072 42.4668 15.587 36.6639 16.1714 31.6814C14.6089 31.7037 13.0731 31.2869 11.7503 30.4813C10.4275 29.6758 9.37442 28.5162 8.71859 27.1429C10.4467 26.1181 12.4171 25.5387 14.442 25.46C16.4669 25.3813 18.4789 25.806 20.2863 26.6934C24.0117 28.3305 28.2508 28.4918 32.0975 27.1429C32.0853 26.8954 26.6099 24.7853 24.475 22.7498C23.3345 21.6614 22.793 21.1372 22.3133 20.7435C22.054 20.5309 21.783 20.332 21.5015 20.1478C21.3148 20.0244 21.1045 19.8908 20.8521 19.7305C18.5572 18.286 13.9935 18.3654 13.8425 18.3693H13.8279C12.581 16.8392 12.6687 11.7939 12.7401 10.74C12.3712 10.8835 12.0191 11.0645 11.6897 11.2799C10.5889 12.0404 9.55992 12.8938 8.61469 13.8301C7.53368 14.8844 6.54583 16.0245 5.66148 17.2384C3.63899 20.0139 2.20432 23.1489 1.44029 26.4639C1.42487 26.526 0.307064 31.257 0.858254 33.7105L0.863936 33.709Z" fill="url(#paint7_radial_111_65)"/>
<path d="M43.1294 21.685C44.278 22.7771 45.2618 24.0206 46.0518 25.3787C46.2247 25.5052 46.3862 25.6309 46.5234 25.7527C53.6564 32.1184 49.9191 41.1167 49.6406 41.7533C55.435 37.1315 59.1383 30.2951 58.0262 23.2379C54.4674 14.6482 48.4311 11.1825 43.5118 3.64587C43.2626 3.26472 43.0134 2.88278 42.7706 2.47962C42.6318 2.24936 42.5206 2.04188 42.424 1.85091C42.2197 1.46784 42.0622 1.06299 41.9548 0.644584C41.955 0.625277 41.9478 0.606594 41.9346 0.592099C41.9214 0.577604 41.9032 0.568312 41.8834 0.565996C41.864 0.560846 41.8435 0.560846 41.8241 0.565996C41.8201 0.565996 41.8136 0.573069 41.8087 0.574641C41.8038 0.576212 41.7933 0.583285 41.786 0.586429C40.5691 1.14519 33.3517 12.2096 43.1335 21.6716L43.1294 21.685Z" fill="url(#paint8_radial_111_65)"/>
<path d="M46.5226 25.7559C46.3854 25.634 46.2239 25.5083 46.0509 25.3818C45.9868 25.3354 45.9235 25.289 45.8553 25.2427C43.6423 23.7587 40.9389 23.1232 38.2694 23.4595C49.5854 28.9371 46.5494 47.7983 30.8668 47.091C29.4705 47.0354 28.0906 46.7777 26.7731 46.3263C26.4652 46.2147 26.1572 46.0927 25.8493 45.9601C25.6715 45.8815 25.4938 45.8029 25.3184 45.7149L25.3403 45.7283C27.5272 47.1735 38.3286 50.7045 49.6203 41.7989L49.6381 41.7596C49.9198 41.123 53.6572 32.1246 46.521 25.759L46.5226 25.7559Z" fill="url(#paint9_radial_111_65)"/>
<path d="M17.9078 35.7366C17.9078 35.7366 19.3601 30.4971 28.3065 30.4971C29.2734 30.4971 32.0407 27.884 32.0902 27.1265C28.2435 28.4754 24.0044 28.314 20.279 26.6769C18.4716 25.7895 16.4596 25.3649 14.4347 25.4436C12.4098 25.5223 10.4394 26.1016 8.7113 27.1265C9.36713 28.4997 10.4202 29.6593 11.743 30.4649C13.0658 31.2704 14.6016 31.6872 16.1641 31.6649C15.5813 36.6451 18.3007 42.4472 24.8825 45.4965C25.0294 45.5648 25.1674 45.6387 25.3184 45.7039C21.4763 43.7824 18.304 40.1485 17.9078 35.7389V35.7366Z" fill="url(#paint10_radial_111_65)"/>
<path d="M61.1507 21.6614C59.7837 18.477 57.0107 15.0388 54.8392 13.9519C56.3877 16.8549 57.4625 19.9725 58.0254 23.1939L58.0311 23.2449C54.4739 14.6631 48.4441 11.1974 43.5167 3.66076C43.2675 3.27961 43.0183 2.89767 42.7756 2.49451C42.6368 2.26425 42.5255 2.05678 42.4289 1.86581C42.2246 1.48273 42.0672 1.07788 41.9597 0.659477C41.9599 0.640169 41.9527 0.621486 41.9395 0.606992C41.9263 0.592497 41.9081 0.583205 41.8883 0.580889C41.8689 0.575739 41.8484 0.575739 41.829 0.580889C41.825 0.580889 41.8185 0.587962 41.8136 0.589533C41.8088 0.591105 41.7982 0.598178 41.7909 0.601322L41.8031 0.580889C33.9005 5.06042 31.2176 13.3515 30.9741 17.5009C31.341 17.4766 31.7047 17.4467 32.0797 17.4467C34.8834 17.452 37.6357 18.1758 40.0568 19.5447C42.4778 20.9136 44.4813 22.8788 45.8635 25.2403C43.6505 23.7563 40.9471 23.1209 38.2776 23.4571C49.5936 28.9347 46.5576 47.7959 30.8751 47.0886C29.4787 47.033 28.0988 46.7753 26.7813 46.3239C26.4734 46.2124 26.1655 46.0903 25.8575 45.9577C25.6798 45.8791 25.502 45.8005 25.3266 45.7125L25.3486 45.7259C25.1959 45.6552 25.0433 45.5815 24.8907 45.5051C25.0376 45.5734 25.1756 45.6473 25.3266 45.7125C21.4845 43.7903 18.3122 40.1563 17.916 35.7475C17.916 35.7475 19.3683 30.5081 28.3147 30.5081C29.2816 30.5081 32.0489 27.895 32.0984 27.1374C32.0862 26.8899 26.6109 24.7798 24.4759 22.7443C23.3354 21.6559 22.7939 21.1317 22.3142 20.738C22.0549 20.5254 21.7839 20.3265 21.5024 20.1423C20.7856 17.7131 20.755 15.1422 21.4139 12.6976C18.5117 14.0586 15.933 15.9881 13.8409 18.3638H13.8263C12.5795 16.8337 12.6671 11.7884 12.7386 10.7345C12.3697 10.878 12.0176 11.059 11.6881 11.2744C10.5874 12.0349 9.5584 12.8883 8.61317 13.8246C7.53602 14.8818 6.55224 16.0246 5.67213 17.2408C3.64964 20.0162 2.21498 23.1512 1.45095 26.4663L1.40873 26.6675C1.34947 26.9354 1.08403 28.2966 1.04587 28.5889C0.803075 29.994 0.648016 31.4119 0.581543 32.8351V32.9922C0.595447 40.6142 3.56039 47.9541 8.89108 53.5631C14.2218 59.1721 21.5308 62.6425 29.3754 63.2894C37.2199 63.9362 45.03 61.7124 51.2637 57.057C57.4974 52.4015 61.7019 45.6528 63.047 38.1429C63.0998 37.75 63.1428 37.361 63.1899 36.9641C63.8379 31.7788 63.1364 26.5189 61.1491 21.663L61.1507 21.6614Z" fill="url(#paint11_linear_111_65)"/>
</g>
<defs>
<linearGradient id="paint0_linear_111_65" x1="56.9863" y1="10.31" x2="6.3882" y2="60.7366" gradientUnits="userSpaceOnUse">
<stop offset="0.048" stop-color="#FFF44F"/>
<stop offset="0.111" stop-color="#FFE847"/>
<stop offset="0.225" stop-color="#FFC830"/>
<stop offset="0.368" stop-color="#FF980E"/>
<stop offset="0.401" stop-color="#FF8B16"/>
<stop offset="0.462" stop-color="#FF672A"/>
<stop offset="0.534" stop-color="#FF3647"/>
<stop offset="0.705" stop-color="#E31587"/>
</linearGradient>
<radialGradient id="paint1_radial_111_65" cx="0" cy="0" r="1" gradientUnits="userSpaceOnUse" gradientTransform="translate(54.9649 7.64913) scale(65.5908 63.4993)">
<stop offset="0.129" stop-color="#FFBD4F"/>
<stop offset="0.186" stop-color="#FFAC31"/>
<stop offset="0.247" stop-color="#FF9D17"/>
<stop offset="0.283" stop-color="#FF980E"/>
<stop offset="0.403" stop-color="#FF563B"/>
<stop offset="0.467" stop-color="#FF3750"/>
<stop offset="0.71" stop-color="#F5156C"/>
<stop offset="0.782" stop-color="#EB0878"/>
<stop offset="0.86" stop-color="#E50080"/>
</radialGradient>
<radialGradient id="paint2_radial_111_65" cx="0" cy="0" r="1" gradientUnits="userSpaceOnUse" gradientTransform="translate(30.6119 33.5832) scale(65.5908 63.4993)">
<stop offset="0.3" stop-color="#960E18"/>
<stop offset="0.351" stop-color="#B11927" stop-opacity="0.74"/>
<stop offset="0.435" stop-color="#DB293D" stop-opacity="0.343"/>
<stop offset="0.497" stop-color="#F5334B" stop-opacity="0.094"/>
<stop offset="0.53" stop-color="#FF3750" stop-opacity="0"/>
</radialGradient>
<radialGradient id="paint3_radial_111_65" cx="0" cy="0" r="1" gradientUnits="userSpaceOnUse" gradientTransform="translate(38.7296 -6.49677) scale(47.5127 45.9977)">
<stop offset="0.132" stop-color="#FFF44F"/>
<stop offset="0.252" stop-color="#FFDC3E"/>
<stop offset="0.506" stop-color="#FF9D12"/>
<stop offset="0.526" stop-color="#FF980E"/>
</radialGradient>
<radialGradient id="paint4_radial_111_65" cx="0" cy="0" r="1" gradientUnits="userSpaceOnUse" gradientTransform="translate(23.306 50.0868) scale(31.2287 30.2329)">
<stop offset="0.353" stop-color="#3A8EE6"/>
<stop offset="0.472" stop-color="#5C79F0"/>
<stop offset="0.669" stop-color="#9059FF"/>
<stop offset="1" stop-color="#C139E6"/>
</radialGradient>
<radialGradient id="paint5_radial_111_65" cx="0" cy="0" r="1" gradientUnits="userSpaceOnUse" gradientTransform="translate(33.7843 28.1324) rotate(-13.1735) scale(16.5314 18.8022)">
<stop offset="0.206" stop-color="#9059FF" stop-opacity="0"/>
<stop offset="0.278" stop-color="#8C4FF3" stop-opacity="0.064"/>
<stop offset="0.747" stop-color="#7716A8" stop-opacity="0.45"/>
<stop offset="0.975" stop-color="#6E008B" stop-opacity="0.6"/>
</radialGradient>
<radialGradient id="paint6_radial_111_65" cx="0" cy="0" r="1" gradientUnits="userSpaceOnUse" gradientTransform="translate(29.8002 5.29155) scale(22.4697 21.7532)">
<stop stop-color="#FFE226"/>
<stop offset="0.121" stop-color="#FFDB27"/>
<stop offset="0.295" stop-color="#FFC82A"/>
<stop offset="0.502" stop-color="#FFA930"/>
<stop offset="0.732" stop-color="#FF7E37"/>
<stop offset="0.792" stop-color="#FF7139"/>
</radialGradient>
<radialGradient id="paint7_radial_111_65" cx="0" cy="0" r="1" gradientUnits="userSpaceOnUse" gradientTransform="translate(47.6591 -8.85441) scale(95.8697 92.8127)">
<stop offset="0.113" stop-color="#FFF44F"/>
<stop offset="0.456" stop-color="#FF980E"/>
<stop offset="0.622" stop-color="#FF5634"/>
<stop offset="0.716" stop-color="#FF3647"/>
<stop offset="0.904" stop-color="#E31587"/>
</radialGradient>
<radialGradient id="paint8_radial_111_65" cx="0" cy="0" r="1" gradientUnits="userSpaceOnUse" gradientTransform="translate(39.6908 -3.70842) rotate(83.7791) scale(68.0396 46.0905)">
<stop stop-color="#FFF44F"/>
<stop offset="0.06" stop-color="#FFE847"/>
<stop offset="0.168" stop-color="#FFC830"/>
<stop offset="0.304" stop-color="#FF980E"/>
<stop offset="0.356" stop-color="#FF8B16"/>
<stop offset="0.455" stop-color="#FF672A"/>
<stop offset="0.57" stop-color="#FF3647"/>
<stop offset="0.737" stop-color="#E31587"/>
</radialGradient>
<radialGradient id="paint9_radial_111_65" cx="0" cy="0" r="1" gradientUnits="userSpaceOnUse" gradientTransform="translate(29.8002 13.1503) scale(59.8435 57.9352)">
<stop offset="0.137" stop-color="#FFF44F"/>
<stop offset="0.48" stop-color="#FF980E"/>
<stop offset="0.592" stop-color="#FF5634"/>
<stop offset="0.655" stop-color="#FF3647"/>
<stop offset="0.904" stop-color="#E31587"/>
</radialGradient>
<radialGradient id="paint10_radial_111_65" cx="0" cy="0" r="1" gradientUnits="userSpaceOnUse" gradientTransform="translate(45.2238 16.2939) scale(65.5015 63.4128)">
<stop offset="0.094" stop-color="#FFF44F"/>
<stop offset="0.231" stop-color="#FFE141"/>
<stop offset="0.509" stop-color="#FFAF1E"/>
<stop offset="0.626" stop-color="#FF980E"/>
</radialGradient>
<linearGradient id="paint11_linear_111_65" x1="56.3532" y1="10.0507" x2="13.3568" y2="54.4714" gradientUnits="userSpaceOnUse">
<stop offset="0.167" stop-color="#FFF44F" stop-opacity="0.8"/>
<stop offset="0.266" stop-color="#FFF44F" stop-opacity="0.634"/>
<stop offset="0.489" stop-color="#FFF44F" stop-opacity="0.217"/>
<stop offset="0.6" stop-color="#FFF44F" stop-opacity="0"/>
</linearGradient>
<clipPath id="clip0_111_65">
<rect width="64" height="64" fill="white"/>
</clipPath>
</defs>
</svg>
