<svg width="64" height="64" viewBox="0 0 64 64" fill="none" xmlns="http://www.w3.org/2000/svg">
<g clip-path="url(#clip0_111_88)">
<g opacity="0.53" filter="url(#filter0_f_111_88)">
<path d="M61.19 33.017C61.19 36.7284 60.435 40.4034 58.9682 43.8322C57.5013 47.2611 55.3513 50.3766 52.6409 53.0009C49.9305 55.6252 46.7127 57.707 43.1714 59.1272C39.6301 60.5475 35.8345 61.2785 32.0014 61.2785C28.1683 61.2785 24.3728 60.5475 20.8315 59.1272C17.2901 57.707 14.0724 55.6252 11.362 53.0009C8.65159 50.3766 6.50158 47.2611 5.03472 43.8322C3.56785 40.4034 2.81287 36.7284 2.81287 33.017C2.81287 25.5216 5.88808 18.3332 11.362 13.0331C16.8359 7.73304 24.2601 4.75549 32.0014 4.75549C35.8345 4.75549 39.6301 5.4865 43.1714 6.90677C46.7127 8.32705 49.9305 10.4088 52.6409 13.0331C55.3513 15.6574 57.5013 18.7729 58.9682 22.2018C60.435 25.6306 61.19 29.3057 61.19 33.017Z" fill="black"/>
</g>
<path d="M62.2998 30.5215C62.2998 34.5224 61.5161 38.4841 59.9934 42.1805C58.4706 45.8768 56.2388 49.2355 53.4252 52.0645C50.6116 54.8936 47.2714 57.1378 43.5952 58.6688C39.9191 60.1999 35.979 60.988 32 60.988C23.964 60.988 16.2571 57.7781 10.5748 52.0645C4.89248 46.351 1.70019 38.6017 1.7002 30.5215C1.70019 22.4412 4.89248 14.692 10.5748 8.97837C16.2571 3.26479 23.964 0.0549337 32 0.0549316C35.979 0.0549314 39.9191 0.842974 43.5952 2.37406C47.2714 3.90515 50.6116 6.1493 53.4252 8.97837C56.2388 11.8075 58.4706 15.166 59.9934 18.8624C61.5161 22.5588 62.2998 26.5205 62.2998 30.5215Z" fill="url(#paint0_linear_111_88)" stroke="#CDCDCD" stroke-width="0.351543" stroke-linecap="round" stroke-linejoin="round"/>
<path d="M59.9255 30.5214C59.9255 37.9685 56.9834 45.1105 51.7463 50.3764C46.5093 55.6423 39.4063 58.6006 32 58.6006C24.5937 58.6006 17.4907 55.6423 12.2537 50.3764C7.01661 45.1105 4.07446 37.9685 4.07446 30.5214C4.07446 23.0744 7.01661 15.9323 12.2537 10.6665C17.4907 5.40059 24.5937 2.44226 32 2.44226C39.4063 2.44226 46.5093 5.40059 51.7463 10.6665C56.9834 15.9323 59.9255 23.0744 59.9255 30.5214Z" fill="url(#paint1_radial_111_88)"/>
<path d="M32 3.90662C31.7744 3.90662 31.5928 4.08919 31.5928 4.316V9.03808C31.5928 9.26489 31.7744 9.44746 32 9.44746C32.2256 9.44746 32.4071 9.26489 32.4071 9.03808V4.316C32.4071 4.08919 32.2256 3.90662 32 3.90662ZM29.3365 4.07589C29.3095 4.07297 29.2817 4.07297 29.2537 4.07623C29.0293 4.09976 28.8676 4.30031 28.891 4.52589L29.0962 6.5014C29.1196 6.72699 29.3191 6.88964 29.5434 6.86609C29.7678 6.84255 29.9295 6.642 29.9061 6.41642L29.701 4.44092C29.6805 4.24353 29.5252 4.09432 29.3365 4.07589ZM34.6822 4.07783C34.4934 4.09612 34.338 4.24532 34.3174 4.44268L34.1107 6.41802C34.0871 6.64359 34.2489 6.84432 34.4732 6.86804C34.6976 6.89177 34.897 6.72927 34.9206 6.50371L35.1273 4.5282C35.1509 4.30263 34.9891 4.10207 34.7647 4.07836C34.7367 4.07544 34.7091 4.07542 34.6822 4.07783ZM26.6004 4.47484C26.5733 4.47506 26.5457 4.47776 26.5181 4.48359C26.2975 4.53057 26.1574 4.74706 26.2041 4.96895L27.1767 9.58856C27.2234 9.81044 27.4387 9.95126 27.6594 9.9043C27.8801 9.85732 28.0201 9.641 27.9734 9.41911L27.0008 4.79934C26.9599 4.60518 26.79 4.47335 26.6004 4.47484ZM37.4181 4.47873C37.2284 4.47679 37.0585 4.609 37.0175 4.80312L36.0415 9.42218C35.9946 9.64404 36.1346 9.86059 36.3552 9.90772C36.5758 9.95489 36.7912 9.81416 36.838 9.59233L37.814 4.97325C37.8609 4.75141 37.7209 4.53485 37.5003 4.48773C37.4728 4.48189 37.4452 4.47873 37.4181 4.47873ZM23.9892 5.21515C23.9365 5.21028 23.882 5.21612 23.8284 5.23401C23.6139 5.30414 23.4972 5.53406 23.5669 5.74976L24.1774 7.63888C24.2471 7.85459 24.4759 7.97187 24.6905 7.90179C24.905 7.83166 25.0215 7.60157 24.9518 7.38587L24.3413 5.49675C24.2891 5.33497 24.1473 5.22867 23.9892 5.21515ZM40.0145 5.21612C39.8564 5.22964 39.7147 5.33598 39.6624 5.49775L39.0516 7.38669C38.9818 7.60238 39.0984 7.8325 39.3129 7.90261C39.5274 7.97274 39.7562 7.85554 39.826 7.63989L40.4368 5.75077C40.5065 5.53507 40.3899 5.30497 40.1755 5.23485C40.1219 5.21734 40.0672 5.21165 40.0145 5.21612ZM21.407 6.16527C21.3541 6.16624 21.3006 6.17791 21.249 6.20096C21.043 6.29307 20.9508 6.53402 21.0424 6.74126L22.9498 11.0563C23.0414 11.2635 23.281 11.3562 23.4871 11.2641C23.6932 11.1719 23.7856 10.931 23.694 10.7238L21.7864 6.40875C21.7177 6.2533 21.5657 6.16217 21.407 6.16527ZM42.6259 6.17976C42.4672 6.17684 42.315 6.26739 42.2461 6.4227L40.3329 10.7351C40.241 10.9422 40.3329 11.1833 40.5388 11.2757C40.7448 11.3681 40.9846 11.2758 41.0765 11.0686L42.9898 6.75629C43.0817 6.54916 42.9898 6.30803 42.7838 6.21563C42.7324 6.19258 42.6787 6.18093 42.6259 6.17976ZM19.0102 7.44041C18.932 7.43457 18.8515 7.45208 18.7783 7.49468C18.5829 7.60808 18.5165 7.85747 18.6292 8.05389L19.617 9.7741C19.7297 9.97052 19.9777 10.0373 20.1731 9.92392C20.3684 9.81052 20.4349 9.56114 20.3221 9.36471L19.3344 7.64452C19.2639 7.52175 19.1405 7.44957 19.0102 7.44041ZM44.9898 7.44041C44.8595 7.44916 44.7363 7.52172 44.6658 7.64449L43.6779 9.36468C43.5651 9.56111 43.6317 9.81049 43.8271 9.92389C44.0224 10.0373 44.2704 9.97048 44.3832 9.77407L45.3709 8.05386C45.4837 7.85745 45.4173 7.60805 45.2219 7.49465C45.1487 7.45215 45.068 7.43496 44.9898 7.44041ZM16.6828 8.9C16.6045 8.90292 16.526 8.92821 16.4575 8.9781C16.275 9.11128 16.2346 9.36627 16.3671 9.54986L19.1246 13.3721C19.2571 13.5557 19.5109 13.5963 19.6934 13.4631C19.876 13.3299 19.9164 13.0749 19.7839 12.8914L17.0262 9.06913C16.9434 8.95439 16.8133 8.89552 16.6828 8.9ZM47.3463 8.92081C47.2158 8.91595 47.0858 8.97479 47.0028 9.08937L44.24 12.9079C44.1073 13.0913 44.1473 13.3464 44.3298 13.4798C44.5122 13.6132 44.7659 13.5731 44.8986 13.3898L47.6612 9.57124C47.7939 9.38783 47.7538 9.13274 47.5715 8.99931C47.5031 8.94932 47.4247 8.92364 47.3463 8.92081ZM14.6025 10.6543C14.4986 10.6484 14.3925 10.6833 14.3087 10.7592C14.141 10.911 14.1276 11.1688 14.2785 11.3373L15.6002 12.8137C15.7512 12.9823 16.0076 12.9958 16.1752 12.8441C16.3428 12.6923 16.3563 12.4343 16.2054 12.2658L14.8838 10.7896C14.8084 10.7052 14.7064 10.6598 14.6025 10.6543ZM49.4005 10.6572C49.2966 10.663 49.1946 10.7082 49.1192 10.7925L47.7974 12.2686C47.6465 12.4371 47.6598 12.6951 47.8275 12.8468C47.9951 12.9986 48.2515 12.985 48.4025 12.8165L49.7244 11.3405C49.8753 11.1719 49.8618 10.9139 49.6942 10.7622C49.6103 10.6863 49.5044 10.6517 49.4005 10.6572ZM12.6086 12.58C12.5047 12.5859 12.4029 12.6311 12.3275 12.7154C12.1765 12.884 12.19 13.1418 12.3576 13.2935L15.8479 16.4528C16.0156 16.6046 16.272 16.591 16.4229 16.4225C16.5738 16.2539 16.5605 15.9961 16.3928 15.8443L12.9023 12.685C12.8185 12.6092 12.7126 12.5745 12.6086 12.58ZM51.404 12.5939C51.3001 12.588 51.1939 12.6228 51.1101 12.6986L47.6177 15.8555C47.4499 16.0071 47.4361 16.2649 47.5869 16.4336C47.7377 16.6022 47.9943 16.6159 48.162 16.4643L51.6546 13.3075C51.8223 13.1559 51.836 12.898 51.6852 12.7294C51.6097 12.645 51.508 12.5994 51.404 12.5939ZM10.9505 14.7238C10.82 14.7189 10.6899 14.7781 10.607 14.8927C10.4744 15.0762 10.5146 15.3312 10.6972 15.4645L12.2953 16.632C12.4778 16.7653 12.7313 16.7251 12.8639 16.5415C12.9965 16.3581 12.9564 16.1029 12.774 15.9696L11.1758 14.8021C11.1074 14.7521 11.0288 14.7266 10.9505 14.7238ZM53.0605 14.7387C52.9822 14.7416 52.9037 14.7668 52.8353 14.8168L51.2364 15.9833C51.0538 16.1164 51.0134 16.3716 51.1459 16.5552C51.2783 16.7388 51.5319 16.7792 51.7145 16.646L53.3135 15.4796C53.4961 15.3464 53.5363 15.0914 53.4039 14.9078C53.3211 14.7931 53.191 14.7342 53.0605 14.7387ZM9.40105 17.0105C9.27077 17.0193 9.14752 17.0918 9.07702 17.2146C8.96424 17.411 9.03069 17.6604 9.22603 17.7738L13.293 20.1348C13.4884 20.2482 13.7364 20.1814 13.8492 19.985C13.962 19.7886 13.8955 19.5392 13.7002 19.4258L9.63317 17.0647C9.55995 17.0222 9.47921 17.0051 9.40105 17.0105ZM54.5989 17.0105C54.5208 17.0047 54.4401 17.0222 54.3668 17.0648L50.2998 19.4258C50.1045 19.5392 50.038 19.7886 50.1508 19.985C50.2636 20.1814 50.5116 20.2483 50.707 20.1349L54.7741 17.7738C54.9695 17.6604 55.0359 17.411 54.9231 17.2146C54.8526 17.0918 54.7292 17.0197 54.5989 17.0105ZM8.22953 19.4479C8.07087 19.444 7.91872 19.5353 7.8498 19.6906C7.75791 19.8978 7.84974 20.1389 8.05575 20.2313L9.86001 21.0405C10.066 21.1329 10.3058 21.0406 10.3977 20.8334C10.4896 20.6263 10.3976 20.3852 10.1916 20.2928L8.38751 19.4836C8.33605 19.4604 8.28241 19.4489 8.22953 19.4479ZM55.7784 19.4647C55.7255 19.4657 55.6717 19.4773 55.6202 19.5004L53.8156 20.3082C53.6095 20.4005 53.5174 20.6415 53.6091 20.8487C53.7009 21.0559 53.9408 21.1485 54.1468 21.0563L55.9515 20.2483C56.1575 20.1561 56.2495 19.915 56.1577 19.7078C56.089 19.5524 55.937 19.4615 55.7784 19.4647ZM7.18542 21.9954C7.02728 22.0087 6.8855 22.1149 6.8331 22.2766C6.76326 22.4923 6.87953 22.7225 7.09404 22.7927L11.5592 24.2557C11.7737 24.3259 12.0026 24.2089 12.0725 23.9933C12.1423 23.7777 12.0261 23.5475 11.8116 23.4772L7.34638 22.0143C7.29279 21.9967 7.23812 21.9909 7.18542 21.9954ZM56.8205 22.0129C56.7678 22.008 56.7134 22.0138 56.6598 22.0317L52.1935 23.4915C51.979 23.5616 51.8625 23.7917 51.9322 24.0074C52.002 24.2231 52.2308 24.3403 52.4453 24.2702L56.9114 22.8104C57.1259 22.7403 57.2426 22.5102 57.1729 22.2945C57.1205 22.1327 56.9787 22.0264 56.8205 22.0129ZM6.53491 24.6695C6.34523 24.6676 6.17513 24.8 6.13409 24.9941C6.08718 25.2159 6.22714 25.4324 6.44775 25.4796L8.38013 25.8925C8.60076 25.9397 8.81609 25.799 8.86299 25.5771C8.90991 25.3553 8.76994 25.1388 8.54934 25.0916L6.61714 24.6787C6.58957 24.6729 6.56199 24.6695 6.53491 24.6695ZM57.466 24.6734C57.4389 24.6736 57.4115 24.6773 57.3839 24.6822L55.4516 25.0949C55.2309 25.1421 55.091 25.3584 55.1379 25.5803C55.1848 25.8021 55.4001 25.9429 55.6208 25.8958L57.553 25.4831C57.7736 25.4359 57.9137 25.2194 57.8668 24.9975C57.8258 24.8034 57.6556 24.6718 57.466 24.6734ZM6.04254 27.3594C5.85373 27.3776 5.69832 27.5265 5.67758 27.7239C5.65388 27.9494 5.81524 28.1502 6.03955 28.1741L10.7098 28.6705C10.9341 28.6944 11.1338 28.5319 11.1575 28.3064C11.1812 28.0809 11.0197 27.88 10.7954 27.8562L6.12514 27.3597C6.09709 27.3568 6.06953 27.3568 6.04254 27.3594ZM57.9618 27.3947C57.9348 27.3918 57.9071 27.3918 57.879 27.395L53.2083 27.8851C52.9839 27.9087 52.8222 28.1092 52.8456 28.3348C52.869 28.5604 53.0684 28.723 53.2928 28.6995L57.9636 28.2094C58.1879 28.1858 58.3496 27.9853 58.3262 27.7597C58.3057 27.5623 58.1506 27.4131 57.9618 27.3947ZM5.96347 30.1128C5.7379 30.1128 5.55634 30.2954 5.55634 30.5222C5.55634 30.749 5.7379 30.9315 5.96347 30.9315H7.9389C8.16445 30.9315 8.34621 30.749 8.34621 30.5222C8.34621 30.2954 8.16445 30.1128 7.9389 30.1128H5.96347ZM56.0611 30.1128C55.8355 30.1128 55.6539 30.2954 55.6539 30.5222C55.654 30.749 55.8355 30.9315 56.0611 30.9315H58.0365C58.2621 30.9315 58.4437 30.749 58.4437 30.5222C58.4437 30.2954 58.2621 30.1128 58.0365 30.1128H56.0611ZM10.7899 32.3445C10.7629 32.3416 10.7354 32.3416 10.7073 32.3448L6.03637 32.835C5.81202 32.8585 5.65031 33.0591 5.67369 33.2846C5.6971 33.5102 5.89655 33.6729 6.12089 33.6493L10.7918 33.1592C11.0162 33.1356 11.1779 32.9351 11.1545 32.7095C11.134 32.5121 10.9787 32.363 10.7899 32.3445ZM53.2076 32.3735C53.0188 32.3917 52.8634 32.5406 52.8426 32.738C52.8189 32.9635 52.9803 33.1644 53.2046 33.1882L57.8749 33.6847C58.0992 33.7085 58.2989 33.5461 58.3226 33.3205C58.3463 33.095 58.1847 32.8942 57.9604 32.8703L53.2904 32.3738C53.2623 32.3709 53.2346 32.3709 53.2076 32.3735ZM8.46166 35.1391C8.43457 35.1394 8.40701 35.1421 8.37944 35.1479L6.44706 35.5606C6.22642 35.6078 6.08655 35.8243 6.13341 36.0462C6.18032 36.268 6.39564 36.4087 6.61629 36.3615L8.54866 35.949C8.7693 35.9018 8.90917 35.6853 8.86231 35.4635C8.8213 35.2693 8.65133 35.1375 8.46166 35.1391ZM55.5378 35.143C55.3481 35.1411 55.1782 35.2733 55.1372 35.4674C55.0903 35.6893 55.23 35.9058 55.4506 35.953L57.383 36.3659C57.6036 36.413 57.819 36.2725 57.8659 36.0507C57.9128 35.8288 57.7728 35.6121 57.5522 35.565L55.62 35.152C55.5925 35.1462 55.5649 35.143 55.5378 35.143ZM11.7156 36.7555C11.6629 36.7506 11.6085 36.7564 11.5548 36.7743L7.0886 38.2341C6.87408 38.3042 6.75757 38.5343 6.8273 38.75C6.89704 38.9657 7.12588 39.0829 7.3404 39.0127L11.8065 37.553C12.021 37.4828 12.1377 37.2527 12.0679 37.037C12.0156 36.8753 11.8737 36.7689 11.7156 36.7555ZM52.28 36.77C52.1218 36.7833 51.9801 36.8895 51.9277 37.0512C51.8578 37.2669 51.9741 37.4971 52.1886 37.5673L56.6538 39.0303C56.8683 39.1005 57.0972 38.9835 57.1671 38.7679C57.237 38.5523 57.1206 38.3221 56.9061 38.2518L52.4409 36.7889C52.3874 36.7713 52.3327 36.7655 52.28 36.77ZM10.0113 39.9528C9.9584 39.9537 9.90486 39.9652 9.85334 39.9883L8.04855 40.7962C7.84248 40.8884 7.75051 41.1295 7.84225 41.3367C7.93404 41.5439 8.17371 41.6364 8.37977 41.5441L10.1846 40.7363C10.3906 40.6441 10.4826 40.4031 10.3909 40.1959C10.3221 40.0405 10.17 39.9496 10.0113 39.9528ZM53.9822 39.9683C53.8235 39.9644 53.6714 40.0558 53.6024 40.2111C53.5106 40.4182 53.6024 40.6593 53.8084 40.7517L55.6125 41.5609C55.8185 41.6533 56.0583 41.561 56.1502 41.3539C56.2421 41.1467 56.1502 40.9056 55.9442 40.8132L54.1401 40.004C54.0887 39.9809 54.0351 39.9694 53.9822 39.9683ZM13.5252 40.8554C13.447 40.8496 13.3663 40.8671 13.293 40.9097L9.22603 43.2708C9.03069 43.3842 8.96424 43.6336 9.07702 43.83C9.1898 44.0264 9.43783 44.0932 9.63317 43.9798L13.7002 41.6189C13.8955 41.5055 13.9619 41.256 13.8492 41.0596C13.7787 40.9368 13.6554 40.8646 13.5252 40.8554ZM50.475 40.8554C50.3447 40.8642 50.2213 40.9368 50.1508 41.0595C50.038 41.2559 50.1045 41.5055 50.2998 41.6189L54.3668 43.9798C54.5622 44.0932 54.8104 44.0264 54.9231 43.8299C55.0359 43.6335 54.9695 43.3841 54.7741 43.2707L50.707 40.9097C50.6337 40.8672 50.5532 40.85 50.475 40.8554ZM12.5107 44.3202C12.4324 44.3232 12.3539 44.3485 12.2855 44.3985L10.6866 45.565C10.504 45.6982 10.4636 45.9532 10.5961 46.1368C10.7285 46.3203 10.9821 46.3609 11.1647 46.2277L12.7637 45.0612C12.9463 44.928 12.9867 44.6731 12.8543 44.4895C12.7715 44.3747 12.6413 44.3157 12.5107 44.3202ZM51.4796 44.334C51.3491 44.3292 51.2189 44.3883 51.1361 44.503C51.0035 44.6864 51.0437 44.9416 51.2262 45.0749L52.8244 46.2424C53.0069 46.3757 53.2604 46.3353 53.393 46.1518C53.5256 45.9683 53.4855 45.7133 53.303 45.58L51.7049 44.4125C51.6365 44.3625 51.5579 44.3369 51.4796 44.334ZM16.1319 44.4754C16.028 44.4696 15.922 44.5044 15.8381 44.5802L12.3456 47.737C12.1778 47.8886 12.1642 48.1464 12.315 48.3151C12.4658 48.4838 12.7222 48.4975 12.8899 48.3459L16.3825 45.189C16.5503 45.0374 16.5639 44.7796 16.4131 44.6109C16.3377 44.5266 16.2359 44.481 16.1319 44.4754ZM47.8584 44.4867C47.7545 44.4925 47.6525 44.5377 47.5771 44.622C47.4261 44.7906 47.4396 45.0484 47.6072 45.2001L51.0975 48.3594C51.2652 48.5112 51.5218 48.4976 51.6727 48.3291C51.8236 48.1605 51.8101 47.9027 51.6425 47.751L48.152 44.5917C48.0681 44.5158 47.9623 44.4812 47.8584 44.4867ZM19.4453 47.4857C19.3148 47.4809 19.1845 47.5396 19.1016 47.6543L16.3389 51.4728C16.2062 51.6562 16.2462 51.9113 16.4285 52.0447C16.6109 52.1782 16.8646 52.138 16.9973 51.9546L19.7599 48.1361C19.8926 47.9527 19.8527 47.6976 19.6704 47.5641C19.602 47.5141 19.5236 47.4885 19.4453 47.4857ZM44.532 47.5028C44.4537 47.5058 44.3752 47.531 44.3068 47.5809C44.1242 47.7141 44.0838 47.9691 44.2162 48.1527L46.9738 51.9749C47.1062 52.1585 47.3598 52.1991 47.5424 52.066C47.725 51.9328 47.7653 51.6778 47.6329 51.4942L44.8754 47.672C44.7926 47.5572 44.6626 47.4984 44.532 47.5028ZM15.8789 48.0926C15.775 48.0985 15.673 48.1437 15.5976 48.228L14.2758 49.704C14.1249 49.8725 14.1382 50.1305 14.3059 50.2823C14.4735 50.434 14.7299 50.4204 14.8808 50.2518L16.2028 48.7758C16.3537 48.6073 16.3402 48.3493 16.1726 48.1975C16.0887 48.1217 15.9828 48.0872 15.8789 48.0926ZM48.1186 48.0946C48.0147 48.0887 47.9088 48.1237 47.825 48.1995C47.6573 48.3512 47.6439 48.6091 47.7947 48.7776L49.1163 50.254C49.2672 50.4226 49.5236 50.4361 49.6913 50.2844C49.8589 50.1326 49.8724 49.8746 49.7214 49.7061L48.3999 48.2299C48.3244 48.1455 48.2226 48.1001 48.1186 48.0946ZM23.3032 49.7321C23.1445 49.7282 22.9925 49.8195 22.9236 49.9748L21.0102 54.2872C20.9183 54.4943 21.0102 54.7355 21.2162 54.8279C21.4222 54.9203 21.662 54.8279 21.7539 54.6208L23.6673 50.3084C23.7592 50.1013 23.6673 49.8602 23.4613 49.7678C23.4099 49.7446 23.3561 49.7332 23.3032 49.7321ZM40.671 49.7439C40.6181 49.7449 40.5644 49.7564 40.5128 49.7794C40.3068 49.8716 40.2146 50.1125 40.3062 50.3197L42.2136 54.6348C42.3052 54.8419 42.545 54.9347 42.7511 54.8425C42.9571 54.7504 43.0494 54.5095 42.9578 54.3022L41.0504 49.9872C40.9817 49.8319 40.8296 49.7409 40.671 49.7439ZM19.941 51.0654C19.8107 51.0741 19.6874 51.1467 19.617 51.2694L18.6292 52.9896C18.5165 53.1861 18.5829 53.4355 18.7783 53.5489C18.9736 53.6623 19.2216 53.5954 19.3344 53.399L20.3221 51.6788C20.4349 51.4824 20.3684 51.233 20.1731 51.1196C20.0999 51.0771 20.0191 51.0599 19.941 51.0654ZM44.059 51.0654C43.9808 51.0595 43.9003 51.0771 43.8271 51.1196C43.6317 51.233 43.5653 51.4824 43.6781 51.6789L44.6658 53.3991C44.7785 53.5955 45.0266 53.6623 45.2219 53.5489C45.4173 53.4355 45.4837 53.1861 45.3709 52.9897L44.3832 51.2695C44.3127 51.1467 44.1893 51.0745 44.059 51.0654ZM27.5628 51.127C27.3731 51.1251 27.2031 51.2573 27.1621 51.4514L26.1862 56.0705C26.1393 56.2924 26.2792 56.5089 26.4998 56.556C26.7205 56.6032 26.9358 56.4625 26.9827 56.2407L27.9586 51.6216C28.0056 51.3997 27.8656 51.1832 27.645 51.1361C27.6174 51.1302 27.5898 51.127 27.5628 51.127ZM36.4228 51.13C36.3957 51.1302 36.3684 51.1329 36.3408 51.1387C36.1201 51.1857 35.9801 51.402 36.0268 51.6239L36.9994 56.2437C37.0461 56.4655 37.2614 56.6064 37.4821 56.5594C37.7028 56.5124 37.8428 56.2959 37.7961 56.0741L36.8233 51.4546C36.7824 51.2604 36.6125 51.1285 36.4228 51.13ZM32 51.5959C31.7744 51.5959 31.5928 51.7784 31.5928 52.0053V56.7273C31.5928 56.9541 31.7744 57.1367 32 57.1367C32.2256 57.1367 32.4071 56.9541 32.4071 56.7273V52.0053C32.4071 51.7784 32.2256 51.5959 32 51.5959ZM24.5263 53.1217C24.3682 53.1352 24.2263 53.2416 24.174 53.4034L23.5634 55.2925C23.4937 55.5082 23.6102 55.7383 23.8247 55.8084C24.0392 55.8785 24.2681 55.7611 24.3378 55.5455L24.9484 53.6566C25.0182 53.4409 24.9016 53.2108 24.6871 53.1406C24.6335 53.1231 24.5791 53.1173 24.5263 53.1217ZM39.4705 53.1227C39.4178 53.1178 39.3633 53.1237 39.3097 53.1415C39.0952 53.2116 38.9785 53.4417 39.0482 53.6574L39.6587 55.5465C39.7284 55.7622 39.9572 55.8793 40.1718 55.8092C40.3863 55.7391 40.5029 55.5092 40.4332 55.2935L39.8226 53.4044C39.7703 53.2426 39.6286 53.1362 39.4705 53.1227ZM29.4443 54.1749C29.2555 54.1931 29.1 54.3422 29.0794 54.5395L28.8729 56.515C28.8493 56.7406 29.0109 56.9412 29.2352 56.9649C29.4596 56.9886 29.6592 56.8261 29.6828 56.6006L29.8893 54.6252C29.9129 54.3997 29.7513 54.1989 29.5269 54.1752C29.4989 54.1723 29.4713 54.1723 29.4443 54.1749ZM34.5393 54.1768C34.5123 54.1739 34.4845 54.1739 34.4565 54.1771C34.2322 54.2007 34.0704 54.4012 34.0938 54.6268L34.2991 56.6025C34.3225 56.8281 34.5219 56.9906 34.7463 56.967C34.9706 56.9435 35.1324 56.7429 35.1089 56.5173L34.9039 54.5418C34.8834 54.3444 34.7281 54.1952 34.5393 54.1768Z" fill="#F4F2F3"/>
<g opacity="0.409" filter="url(#filter1_f_111_88)">
<path d="M51.082 14.1462L28.8066 27.1595L14.7225 49.4539L35.3264 34.1088L51.082 14.1462Z" fill="black"/>
</g>
<path d="M35.1924 33.883L28.8076 27.1598L51.4571 11.8396L35.1924 33.883Z" fill="#FF5150"/>
<path d="M35.1924 33.8831L28.8076 27.1599L12.5428 49.2034L35.1924 33.8831Z" fill="#F1F1F1"/>
<path opacity="0.243" d="M12.5428 49.2033L35.1924 33.883L51.4571 11.8396L12.5428 49.2033Z" fill="black"/>
</g>
<defs>
<filter id="filter0_f_111_88" x="-6.14066" y="-4.19803" width="76.2842" height="74.4301" filterUnits="userSpaceOnUse" color-interpolation-filters="sRGB">
<feFlood flood-opacity="0" result="BackgroundImageFix"/>
<feBlend mode="normal" in="SourceGraphic" in2="BackgroundImageFix" result="shape"/>
<feGaussianBlur stdDeviation="4.47676" result="effect1_foregroundBlur_111_88"/>
</filter>
<filter id="filter1_f_111_88" x="12.1776" y="11.6014" width="41.4492" height="40.3973" filterUnits="userSpaceOnUse" color-interpolation-filters="sRGB">
<feFlood flood-opacity="0" result="BackgroundImageFix"/>
<feBlend mode="normal" in="SourceGraphic" in2="BackgroundImageFix" result="shape"/>
<feGaussianBlur stdDeviation="1.27242" result="effect1_foregroundBlur_111_88"/>
</filter>
<linearGradient id="paint0_linear_111_88" x1="31.9989" y1="60.9873" x2="31.9989" y2="0.0547718" gradientUnits="userSpaceOnUse">
<stop stop-color="#BDBDBD"/>
<stop offset="1" stop-color="white"/>
</linearGradient>
<radialGradient id="paint1_radial_111_88" cx="0" cy="0" r="1" gradientUnits="userSpaceOnUse" gradientTransform="translate(32.1259 26.4271) scale(30.2997 30.4664)">
<stop stop-color="#06C2E7"/>
<stop offset="0.25" stop-color="#0DB8EC"/>
<stop offset="0.5" stop-color="#12AEF1"/>
<stop offset="0.75" stop-color="#1F86F9"/>
<stop offset="1" stop-color="#107DDD"/>
</radialGradient>
<clipPath id="clip0_111_88">
<rect width="64" height="64" fill="white"/>
</clipPath>
</defs>
</svg>
