<svg width="16" height="16" viewBox="0 0 16 16" fill="transparent" xmlns="http://www.w3.org/2000/svg"><path d="M8 8V13.7143C8 14.3205 7.75918 14.9019 7.33053 15.3305C6.90188 15.7592 6.32049 16 5.71429 16H2.28571C1.67951 16 1.09812 15.7592 0.66947 15.3305C0.240816 14.9019 0 14.3205 0 13.7143V10.2857C0 9.67951 0.240816 9.09813 0.66947 8.66947C1.09812 8.24082 1.67951 8 2.28571 8H8H13.7143C14.3205 8 14.9019 7.75918 15.3305 7.33053C15.7592 6.90188 16 6.32049 16 5.71429V2.28571C16 1.67951 15.7592 1.09812 15.3305 0.66947C14.9019 0.240816 14.3205 0 13.7143 0H10.2857C9.67951 0 9.09813 0.240816 8.66947 0.66947C8.24082 1.09812 8 1.67951 8 2.28571V8Z" fill="#F6F6F6" /></svg>
