<svg width="24" height="24" viewBox="0 0 24 24" fill="none" xmlns="http://www.w3.org/2000/svg">
<path fill-rule="evenodd" clip-rule="evenodd" d="M5.46967 5.47651C5.76256 5.18361 6.23744 5.18361 6.53033 5.47651L12 10.9462L17.4697 5.47651C17.7626 5.18361 18.2374 5.18361 18.5303 5.47651C18.8232 5.7694 18.8232 6.24427 18.5303 6.53717L13.0607 12.0068L18.5303 17.4765C18.8232 17.7694 18.8232 18.2443 18.5303 18.5372C18.2374 18.8301 17.7626 18.8301 17.4697 18.5372L12 13.0675L6.53033 18.5372C6.23744 18.8301 5.76256 18.8301 5.46967 18.5372C5.17678 18.2443 5.17678 17.7694 5.46967 17.4765L10.9393 12.0068L5.46967 6.53717C5.17678 6.24427 5.17678 5.7694 5.46967 5.47651Z" fill="#F6F6F6"/>
</svg>
